<svg style="position: absolute; width: 0; height: 0; overflow: hidden;" version="1.1" xmlns="http://www.w3.org/2000/svg"
     xmlns:xlink="http://www.w3.org/1999/xlink">
    <defs>

        <symbol id="star-empty" viewBox="0 0 34 32">
            <title>star-empty</title>
            <path class="path-star-empty"
                  d="M33.412 12.395l-11.842-1.021-4.628-10.904-4.628 10.92-11.842 1.005 8.993 7.791-2.701 11.579 10.179-6.144 10.179 6.144-2.685-11.579 8.976-7.791zM16.941 22.541l-6.193 3.739 1.647-7.049-5.468-4.744 7.214-0.626 2.8-6.638 2.816 6.654 7.214 0.626-5.468 4.744 1.647 7.049-6.209-3.755z"/>
        </symbol>

        <symbol id="star-half" viewBox="0 0 34 32">
            <title>star-half</title>
            <path class="path-star-half"
                  d="M 33.412,12.395 21.57,11.374 16.942,0.47 12.314,11.39 0.472,12.395 9.465,20.186 6.764,31.765 16.943,25.621 27.122,31.765 24.437,20.186 33.413,12.395 Z M 16.941,22.541 c 0,0 -0.297971,-14.6455833 0,-15.318 l 2.816,6.654 7.214,0.626 -5.468,4.744 1.647,7.049 z"/>
            </symbol>

        <symbol id="star-filled" viewBox="0 0 24 22">
            <title>star-filled</title>
            <path class="path-star-filled"
                  d="M19,3H5C3.895,3,3,3.895,3,5v14c0,1.105,0.895,2,2,2h14c1.105,0,2-0.895,2-2V5C21,3.895,20.105,3,19,3z M16.23,18L12,15.45 L7.77,18l1.12-4.81L5.16,9.96l4.92-0.42L12,5l1.92,4.53l4.92,0.42l-3.73,3.23L16.23,18z"/>
        </symbol>
        
    </defs>
</svg>
